<svg width="476" height="305" viewBox="0 0 476 305" fill="none" xmlns="http://www.w3.org/2000/svg">
<path d="M318.083 220.167C324.757 220.167 330.167 214.757 330.167 208.083C330.167 201.41 324.757 196 318.083 196C311.41 196 306 201.41 306 208.083C306 214.757 311.41 220.167 318.083 220.167Z" fill="#6CB817"/>
<path d="M294.083 196.167C300.757 196.167 306.167 190.757 306.167 184.083C306.167 177.41 300.757 172 294.083 172C287.41 172 282 177.41 282 184.083C282 190.757 287.41 196.167 294.083 196.167Z" fill="#22B3FD"/>
<path d="M342.083 196.167C348.757 196.167 354.167 190.757 354.167 184.083C354.167 177.41 348.757 172 342.083 172C335.41 172 330 177.41 330 184.083C330 190.757 335.41 196.167 342.083 196.167Z" fill="#C40003"/>
<path d="M318.083 172.167C324.757 172.167 330.167 166.757 330.167 160.083C330.167 153.41 324.757 148 318.083 148C311.41 148 306 153.41 306 160.083C306 166.757 311.41 172.167 318.083 172.167Z" fill="#FD9900"/>
<path d="M181.833 147.75H157.667V171.917H133.5V196.083H157.667V220.25H181.833V196.083H206V171.917H181.833V147.75Z" fill="#62737B"/>
<path d="M292.3 99H183.7C150.097 99 117.87 107.955 94.1096 123.896C70.3487 139.837 57 161.457 57 184C57 206.543 70.3487 228.163 94.1096 244.104C117.87 260.045 174 274.239 183.7 269C193.4 263.761 220 252 220 252L238.5 247L258 252C258 252 282.1 263.079 292.3 269C302.5 274.921 358.13 260.045 381.89 244.104C405.651 228.163 419 206.543 419 184C419 161.457 405.651 139.837 381.89 123.896C358.13 107.955 325.903 99 292.3 99ZM292.3 244.714L258 226.931L238.5 223L220 226.931L183.7 244.714C159.698 244.714 136.679 238.318 119.707 226.931C102.735 215.545 93.2 200.102 93.2 184C93.2 167.898 102.735 152.455 119.707 141.069C136.679 129.682 159.698 123.286 183.7 123.286H292.3C316.302 123.286 339.321 129.682 356.293 141.069C373.265 152.455 382.8 167.898 382.8 184C382.8 200.102 373.265 215.545 356.293 226.931C339.321 238.318 316.302 244.714 292.3 244.714Z" fill="#62737B"/>
<path d="M221.837 17C223.572 18.8449 224.715 21.0697 225.371 23.4723C226.437 27.3751 226.369 31.7477 226.011 36.2072C225.293 45.1265 223.505 54.514 225.591 60.3397C227.55 65.8077 230.691 69.0554 234.175 70.6522C235.674 71.3393 237.251 71.7195 238.847 71.8178C242.662 60.6315 241.848 46.3556 235.572 36.7067C243.882 44.9969 247.807 57.5152 245.271 70.636L243.762 71.2427C244.234 71.1021 244.698 70.939 245.153 70.7541C252.335 67.8546 258.212 59.3669 255.767 46.9228C254.643 41.2053 250.788 33.1444 244.337 26.8993C238.756 21.4969 231.304 17.4094 221.837 17ZM270.644 48.5447C270.5 50.6244 269.847 52.5886 268.829 54.3725C267.05 57.4903 264.283 60.1745 261.288 62.7244C255.297 67.824 248.388 72.5481 246.109 77.3713C243.951 81.9402 243.895 85.8365 245.046 88.9355C245.538 90.2618 246.274 91.4842 247.216 92.5394C256.447 87.9354 264.701 78.633 266.777 68.8155C266.79 79.0672 261.512 89.2148 251.888 95.7837C258.042 98.2837 266.718 96.6489 272.809 87.5767C275.631 83.3733 278.233 76.0095 278.105 68.1763C277.996 61.5268 275.997 54.5581 270.644 48.5447ZM197.619 61.1724C195.989 69.0577 197.741 76.0967 200.971 81.9102C204.775 88.7577 210.713 93.8342 215.258 96.0629C225.067 100.873 233.393 97.948 237.472 92.7061C225.855 91.8296 216.213 85.6811 211.101 76.7969C217.807 84.2611 229.604 88.1905 239.9 87.5605C240.19 86.1761 240.217 84.7496 239.981 83.3551C239.429 80.0955 237.425 76.747 233.273 73.8697C228.889 70.8326 220.546 70.1984 212.809 68.7779C208.94 68.068 205.204 67.1296 202.104 65.3191C200.33 64.2827 198.784 62.9023 197.619 61.1724Z" fill="#6CB817"/>
</svg>
